<?xml version="1.0" encoding="iso-8859-1"?>
<!-- Generator: Adobe Illustrator 19.0.0, SVG Export Plug-In . SVG Version: 6.00 Build 0)  -->
<svg version="1.1" id="Capa_1" xmlns="http://www.w3.org/2000/svg" xmlns:xlink="http://www.w3.org/1999/xlink" x="0px" y="0px"
	 viewBox="0 0 512 512" style="enable-background:new 0 0 512 512;" xml:space="preserve">
<g>
	<g>
		<path d="M440.09,476.992c-0.054-0.387,0.934,4.653-21.924-110.17c-3.504-17.557-14.377-30.279-30.7-37.094
			c-2.254-0.927,4.163,1.038-65.473-19.502l-19.718-13.334v-12.337c31.882-16.599,53.435-49.93,53.435-88.23v-1.386
			c16.324-3.016,28.611-15.665,28.611-30.772c0-6.255-2.115-12.085-5.742-16.988c0.043-0.595,0.015-3.959,0.028-24.857
			C378.605,54.872,323.732,0,256.285,0c-33.756,0-65.185,13.452-88.497,37.876c-2.86,2.997-2.749,7.745,0.247,10.605
			c2.997,2.859,7.744,2.75,10.605-0.247c20.454-21.43,48.03-33.233,77.646-33.233c59.176,0,107.32,48.144,107.32,107.32v13.398
			c-2.49-1.027-5.134-1.812-7.896-2.322c-0.639-3.22,3.862-22.949-14.398-32.365c-77.053-39.732-144.502-14.157-169.924-1.315
			c-8.962,4.526-14.528,13.588-14.528,23.647v10.033c-2.761,0.51-5.405,1.296-7.896,2.322c0.662-8.384-3.195-31.503,10.69-60.145
			c1.807-3.728,0.249-8.214-3.478-10.022c-3.729-1.806-8.214-0.249-10.021,3.478c-8.089,16.689-12.192,34.619-12.192,53.29
			c0.01,17.176-0.016,24.261,0.028,24.859c-3.627,4.903-5.742,10.733-5.742,16.987c0,15.106,12.287,27.756,28.61,30.772v0.079
			c0,36.301,19.777,71.007,52.867,88.942v13.113l-19.242,13.013c-69.676,20.554-63.761,18.721-66.046,19.683
			c-10.219,4.226-26.064,14.318-30.604,37.058C71.005,481.497,71.966,476.596,71.91,476.992C69.039,497.265,79.749,512,102.317,512
			h185.128c4.143,0,7.5-3.357,7.5-7.5c0-4.143-3.357-7.5-7.5-7.5H155.2v-70.63c0.046-2.969,0.416-49.787-20.948-84.056
			l42.046-12.402c38.793,99.839,122.828,100.944,162.218,0.829c0.743,0.219,0.473,0.139,0.226,0.066
			c1.224,0.361,8.235,2.429,39.006,11.506c-21.364,34.269-20.995,81.087-20.948,84.056v70.63h-34.354c-4.143,0-7.5,3.357-7.5,7.5
			c0,4.143,3.357,7.5,7.5,7.5h87.236C432.178,512,442.972,497.341,440.09,476.992z M355.709,148.783
			c18.116,5.384,18.101,25.388,0,30.768V148.783z M156.859,179.551c-18.111-5.383-18.104-25.387,0-30.768V179.551z M140.199,426.306
			v70.692c-32.516-0.951-45.003,2.525-50.851-4.21c-3.431-3.951-3-10.613-2.612-13.499l21.81-109.53
			c1.973-9.886,7.004-16.384,12.27-20.617C134.399,370.176,140.199,402.031,140.199,426.306z M307.153,318.299
			c-6.596,6.821-19.173,19.83-25.783,26.667l-13.394-9.935c7.291-6.55,22.477-20.193,27.451-24.662L307.153,318.299z
			 M256.134,325.504l-31.407-28.216v-6.618c19.368,6.473,41.646,6.993,62.546,0.183v6.675L256.134,325.504z M198.564,257.428
			c-16.97-16.199-26.704-38.946-26.704-62.411c0-16.517,0-55.066,0-71.652c0-4.367,2.41-8.299,6.29-10.259
			c47.126-23.802,104.136-25.633,156.285,1.259c3.869,1.995,6.272,5.925,6.272,10.256c0,10.005,0,61.55,0,71.704
			C340.708,269.691,252.267,308.682,198.564,257.428z M216.841,310.369c0.975,0.876,4.837,4.346,27.452,24.663l-13.396,9.935
			l-21.805-22.553l-3.976-4.113L216.841,310.369z M233.863,383.572c-16.903-9.794-32.052-29.901-43.12-57.925l0.475-0.14
			l10.16,10.509c23.356,23.284,23.163,26.029,28.178,26.374l5.477,12.665L233.863,383.572z M248.222,389.273l1.067-7.773h13.579
			l1.141,8.313C258.48,390.652,253.403,390.416,248.222,389.273z M264.323,366.498h-16.646l-5.009-11.582l13.332-9.875l13.332,9.875
			L264.323,366.498z M278.5,385.069l-1.413-10.293l5.353-12.378c0.001,0,0.002,0,0.002,0c0.543-0.018,0.961-0.078,1.432-0.186
			c0.477-0.11,0.924-0.26,1.347-0.446c0.424-0.187,0.87-0.436,1.25-0.7c0.241-0.168,0.735-0.552,1.112-0.942l33.407-34.555
			l3.076,0.907C312.421,355.564,296.337,376.013,278.5,385.069z M338.625,330.772c0.017,0.005,0.038,0.011,0.06,0.018
			C338.665,330.784,338.644,330.777,338.625,330.772z M338.519,330.741C338.515,330.74,338.515,330.739,338.519,330.741
			L338.519,330.741z M338.548,330.749c0.016,0.005,0.039,0.011,0.07,0.021C338.59,330.761,338.566,330.754,338.548,330.749z
			 M422.652,492.789c-5.859,6.748-18.45,3.262-50.851,4.21c0-86.135,0.053-68.36-0.001-70.827
			c-0.009-0.487-0.576-46.15,19.385-77.03c5.265,4.233,10.297,10.732,12.269,20.614l21.809,109.535
			C425.651,482.176,426.083,488.838,422.652,492.789z"/>
	</g>
</g>
<g>
</g>
<g>
</g>
<g>
</g>
<g>
</g>
<g>
</g>
<g>
</g>
<g>
</g>
<g>
</g>
<g>
</g>
<g>
</g>
<g>
</g>
<g>
</g>
<g>
</g>
<g>
</g>
<g>
</g>
</svg>
